<svg xmlns="http://www.w3.org/2000/svg" xmlns:xlink="http://www.w3.org/1999/xlink" width="196" height="80" fill="none" xmlns:v="https://vecta.io/nano"><style><![CDATA[.B{fill:#117b89}.C{fill:#c99b2a}.D{fill:#e0b856}.E{fill:#0ca59d}.F{fill:#fff}.G{fill:#248ea3}.H{fill:#e8e8e8}.I{fill:#e4c77a}.J{fill:#185e89}.K{fill:#1d414f}.L{fill:#145975}.M{fill:#d8ae3e}.N{fill:#0b5454}.O{fill:#112236}.P{fill:#3f5064}]]></style><g stroke-width="1.6"><circle cx="40" cy="40" r="39.2" stroke="url(#D)"/><circle opacity=".2" cx="40" cy="40" r="39.2" stroke="url(#E)"/></g><mask id="A" maskUnits="userSpaceOnUse" x="3" y="3" width="74" height="74" mask-type="alpha"><circle cx="40.001" cy="40.001" fill="#fff3c3" r="36.166"/></mask><g mask="url(#A)"><circle cx="40.001" cy="40.001" fill="#fff3c3" r="36.166"/><path d="M10.214 16.392l-.041.03c-.124.194-.207.549-.25 1.066-.233.282-.363.495-.392.641-.087.577-.075 1.099.035 1.564-.127.189-.205.424-.234.706a2.4 2.4 0 0 0 .054.36c.002.06.064.243.188.549.112.245.261.494.449.745-.444.04-.818.168-1.122.383-.018.05-.015.089.008.117.215.132.313.215.292.25.004.01-.009.038-.039.083l-.201.285c-.024.078.004.166.084.265.062.058.278.128.649.211.026 0 .044.12.055.361.021.052.044.076.069.072.315-.061.776-.39 1.384-.988 1.193.484 2.101.737 2.722.758.142-.004.213-.082.212-.234.424.017.804.002 1.139-.046.556-.105.906-.215 1.049-.328.035-.017.017-.039-.055-.068l-2.803-.815c-.371-.119-.554-.192-.548-.22-.034-.067-.019-.128.046-.185.164-.146.418-.301.761-.467.033-.025.043-.046.03-.064-.159-.137-.411-.267-.756-.39-.12-.013-.387.006-.8.055-.098-.051-.249-.224-.453-.52-.177-.257-.327-.549-.451-.873-.425-1.915-.785-3.016-1.081-3.303z" class="F"/><mask id="B" maskUnits="userSpaceOnUse" x="17" y="21" width="6" height="6"><path d="M17.787 21.474h5.043v5.236h-5.042v-5.236z" class="F"/></mask><g mask="url(#B)" class="F"><path d="M22.128 21.503l-.031.001c-.443.069-.904.212-1.383.43L18.2 23.118c-.229.12-.358.217-.389.291-.003.036.01.058.04.068l.372.038.66-.179c.16.056.57.037 1.229-.057.078.003.148.036.211.098a.84.84 0 0 1 .15.376c-.045.5-.047.802-.008.903.031.209.106.423.225.642l.056.253c.009.115-.008.435-.051.96.01.115.026.173.049.176.033.007.084-.036.153-.13l.384-.595c.304-.52.494-.9.568-1.138.07-.215.113-.443.13-.684l-.007-1.762a5.5 5.5 0 0 0 .523-.403l.332-.125-.54-.324a.53.53 0 0 0-.158-.021z"/></g><path d="M23.108 14.691h-.004c-.013.002-.022.008-.028.018-.052.281-.094.445-.129.489-.032.059-.157.193-.377.4-.022.024-.041.064-.056.12-.008.034-.009.091-.005.169l.095.902a.84.84 0 0 1-.026.148c-.025.088-.072.2-.142.338l-.02.119c-.019.297.152.684.515 1.161-.489-.002-.818.008-.986.028-.344.035-.548.1-.613.194-.005.034.003.068.024.101l.254.225c-.074.16-.112.257-.114.291a.2.2 0 0 0 .011.148c.032.06.163.105.392.134.078.144.14.218.185.221.076-.009.14-.033.193-.071l.602-.472.156-.106a1.57 1.57 0 0 0 .662.027c.124-.013.304-.077.54-.191.317-.136.619-.366.907-.689l.395-.165.013-.035c.005-.046-.052-.11-.171-.191-.04-.036-.232-.076-.576-.12-.035-.013-.055-.046-.06-.098a3.09 3.09 0 0 1 .162-.713l.486-1.28c.059-.201.065-.344.018-.429-.053-.055-.123-.067-.21-.035a3.96 3.96 0 0 0-.407.352c-.062.03-.2.069-.414.115a.36.36 0 0 0-.118.073.59.59 0 0 0-.118.261c-.018.052-.041.336-.068.852-.002.016-.014.028-.034.038-.067-.118-.171-.371-.312-.759l-.273-1.05-.227-.409c-.05-.069-.091-.106-.124-.11zm5.164 2.74l-.006.001c-.015.007-.022.019-.023.037l.011.516c-.088.16-.138.265-.15.318-.025.075-.038.143-.038.203-.013.106.003.285.047.538a2.55 2.55 0 0 0 .138.439c-.056.25-.078.421-.067.514.073.315.305.622.696.921l-.68.282c-.142.087-.213.16-.213.218.004.038.014.066.03.083.142.119.209.184.202.193l.102.407c.039.03.149.061.329.091l.249.195h.018c.02 0 .045-.019.077-.058l.367-.622c.085-.117.139-.176.165-.179.051-.013.095-.011.133.005.24.169.421.262.544.278.247.05.56.061.94.031.096-.017.152-.039.168-.066.018-.01.028-.055.032-.134.004-.009.016-.019.035-.031.519-.038.904-.208 1.156-.511-.016-.034-.056-.056-.121-.064l-1.614-.236c-.139-.058-.202-.117-.189-.177.001-.066.08-.152.239-.257.017-.053.013-.09-.011-.109-.119-.075-.411-.095-.878-.059-.027-.005-.07-.031-.131-.077-.097-.073-.2-.204-.308-.396-.238-.704-.413-1.143-.526-1.318-.266-.445-.508-.77-.724-.974z" class="F"/><mask id="C" maskUnits="userSpaceOnUse" x="30" y="12" width="4" height="5"><path d="M30.22 12.723h3.367v3.916H30.22v-3.916z" class="F"/></mask><g mask="url(#C)" class="F"><path d="M32.879 13.631l-.002.011h-.002l-.001-.001h0l.001-.005.001-.002.001-.002h.001zm.166-.888h-.032c-.056-.008-.125.012-.206.061-.066.043-.273.206-.621.489l-1.08.729c-.469.341-.742.581-.819.72-.01.039.029.052.118.041l.505-.181.49-.071c.124-.046.282-.117.474-.214.088-.011.151.001.189.036.075.059.136.149.181.273a2.92 2.92 0 0 1 .118.555c.014.054.029.1.046.138l.325.499c.011.025.02.073.03.143l.037.519c.024.1.053.144.084.132.092-.034.178-.121.256-.261.031-.058.057-.127.078-.206l.101-.527c.007-.019.019-.032.036-.038a.32.32 0 0 1 .122-.008c.009-.006.018-.014.026-.023.035-.047.053-.115.055-.206.015-.661-.155-1.303-.509-1.925l.412-.463c.048-.062.071-.11.071-.146-.003-.02-.029-.034-.079-.042l-.41-.027z"/></g><path d="M28.957 24.881c0 .268-.217.485-.485.485s-.485-.217-.485-.485.217-.485.485-.485.485.217.485.485z" fill="#f29e25"/><path d="M29.009 26.519c0 .771-.241 1.396-.538 1.396s-.538-.625-.538-1.396.241-1.396.538-1.396.538.625.538 1.396z" fill="#d38b18"/><path d="M29.376 28.501c0 .5-.405.905-.905.905s-.905-.405-.905-.905.405-.905.905-.905.905.405.905.905z" fill="#f29e25"/><path d="M42.822 43.564c0 6.552-6.498 8.663-14.513 8.663s-14.513-2.111-14.513-8.663 5.576-15.063 14.513-15.063c9.293 0 14.513 8.511 14.513 15.063z" fill="#e7a115"/><path d="M40.228 43.564c0 6.552-5.34 8.663-11.928 8.663s-11.928-2.111-11.928-8.663 4.583-15.063 11.928-15.063c7.637 0 11.928 8.511 11.928 15.063z" fill="#f0a91b"/><path d="M36.757 43.564c0 6.552-3.64 8.663-8.131 8.663s-8.131-2.111-8.131-8.663 3.124-15.063 8.131-15.063c5.206 0 8.131 8.511 8.131 15.063z" fill="#febb36"/><path d="M31.89 43.564c0 6.552-1.531 8.663-3.42 8.663s-3.42-2.111-3.42-8.663 1.314-15.063 3.42-15.063c2.19 0 3.42 8.511 3.42 15.063z" fill="#ffc655"/><path d="M28.036 50.1c8.908 0 16.13-2.258 16.13-5.042s-7.221-5.043-16.13-5.043-16.13 2.258-16.13 5.043 7.222 5.042 16.13 5.042z" class="E"/><path d="M28.036 50.9c8.908 0 16.13-2.258 16.13-5.043s-7.221-5.042-16.13-5.042-16.13 2.258-16.13 5.042 7.222 5.043 16.13 5.043z" class="N"/><path d="M28.035 41.835c-8.048 0-14.572 1.92-14.572 4.289v2.968 1.321h29.145v-4.289c0-2.369-6.524-4.289-14.572-4.289z" fill="#166c70"/><path d="M29.544 47.79v-3.876c0-.723-.663-1.588-1.474-1.588s-1.474.866-1.474 1.588v3.877h2.948zm-4.469.387v-3.876c0-.723-.663-1.588-1.474-1.588s-1.474.866-1.474 1.588v3.877h2.948zm-4.434.68V44.98c0-.723-.62-1.588-1.378-1.588s-1.378.866-1.378 1.588v3.877h2.757zm-3.9 1.108v-3.876c0-.723-.527-1.589-1.17-1.589s-1.17.866-1.17 1.589v3.877h2.341zm14.388-1.788v-3.876c0-.723.663-1.588 1.474-1.588s1.474.866 1.474 1.588v3.877h-2.948zm4.435.68V44.98c0-.723.62-1.588 1.378-1.588s1.378.866 1.378 1.588v3.877h-2.757zm3.897 1.108v-3.876c0-.723.527-1.589 1.17-1.589s1.17.866 1.17 1.589v3.877H39.46z" class="N"/><path d="M50.183 45.761H5.886v9.796h44.297v-9.796z" fill="#166c70"/><path d="M50.183 45.761H5.886v2.941h44.297v-2.941z" class="G"/><use xlink:href="#H" class="B"/><use xlink:href="#H" x="1.072" class="B"/><use xlink:href="#H" x="2.144" class="B"/><use xlink:href="#H" x="3.217" class="B"/><use xlink:href="#H" x="4.289" class="B"/><use xlink:href="#H" x="5.361" class="B"/><use xlink:href="#H" x="6.433" class="B"/><use xlink:href="#H" x="7.506" class="B"/><use xlink:href="#H" x="8.578" class="B"/><use xlink:href="#H" x="9.651" class="B"/><use xlink:href="#H" x="10.723" class="B"/><use xlink:href="#H" x="11.796" class="B"/><use xlink:href="#H" x="12.868" class="B"/><use xlink:href="#H" x="13.941" class="B"/><use xlink:href="#H" x="15.013" class="B"/><use xlink:href="#H" x="16.085" class="B"/><use xlink:href="#H" x="17.157" class="B"/><use xlink:href="#H" x="18.23" class="B"/><use xlink:href="#H" x="19.301" class="B"/><use xlink:href="#H" x="20.374" class="B"/><use xlink:href="#H" x="21.446" class="B"/><use xlink:href="#H" x="22.518" class="B"/><use xlink:href="#H" x="23.592" class="B"/><use xlink:href="#H" x="24.664" class="B"/><use xlink:href="#H" x="25.736" class="B"/><use xlink:href="#H" x="26.809" class="B"/><use xlink:href="#H" x="27.881" class="B"/><use xlink:href="#H" x="28.953" class="B"/><use xlink:href="#H" x="30.025" class="B"/><use xlink:href="#H" x="31.098" class="B"/><use xlink:href="#H" x="32.169" class="B"/><use xlink:href="#H" x="33.241" class="B"/><use xlink:href="#H" x="34.314" class="B"/><use xlink:href="#H" x="35.387" class="B"/><use xlink:href="#H" x="36.459" class="B"/><use xlink:href="#H" x="37.531" class="B"/><use xlink:href="#H" x="38.604" class="B"/><use xlink:href="#H" x="39.676" class="B"/><use xlink:href="#H" x="40.749" class="B"/><use xlink:href="#H" x="41.821" class="B"/><use xlink:href="#H" x="42.894" class="B"/><path d="M50.183 45.761H5.886v.799h44.297v-.799z" fill="#71ccbd"/><path d="M8.868 49.349H5.886v.937h2.983v-.937zm3.443 0H9.328v.937h2.983v-.937zm3.443 0h-2.982v.937h2.982v-.937z" class="E"/><use xlink:href="#I" class="E"/><use xlink:href="#I" x="3.443" class="E"/><use xlink:href="#I" x="6.886" class="E"/><use xlink:href="#I" x="10.329" class="E"/><use xlink:href="#I" x="13.772" class="E"/><use xlink:href="#I" x="17.214" class="E"/><use xlink:href="#I" x="20.658" class="E"/><use xlink:href="#I" x="24.1" class="E"/><use xlink:href="#I" x="27.543" class="E"/><path d="M50.183 49.349H47.2v.937h2.983v-.937z" class="E"/><path d="M20.23 51.495H5.518v17.471H20.23V51.495z" fill="#d3d3d3"/><path d="M49.846 51.289H5.886v10.893h43.961V51.289z" fill="#9bccc5"/><path d="M50.183 51.289H5.886v1.325h44.297v-1.325z" class="E"/><path d="M12.107 53.92H7.343v7.055h4.764V53.92z" class="J"/><path d="M11.282 60.396v-4.095c0-.763-.7-1.678-1.557-1.678s-1.557.915-1.557 1.678v4.095h3.114 0z" class="K"/><path d="M11.2 60.396v-3.876c0-.723-.663-1.589-1.474-1.589s-1.474.866-1.474 1.589v3.876H11.2z" class="L"/><path d="M11.7 60.74h-3.95v-4.661c0-.888.881-1.962 1.975-1.962S11.7 55.19 11.7 56.079v4.661zm-3.765-.176h3.579v-4.485c0-.809-.798-1.786-1.789-1.786s-1.789.977-1.789 1.786v4.485z" class="G"/><path d="M18.221 53.92h-4.764v7.055h4.764V53.92z" class="J"/><use xlink:href="#J" class="K"/><use xlink:href="#K" class="L"/><path d="M17.815 60.74h-3.951v-4.661c0-.888.881-1.962 1.975-1.962s1.975 1.073 1.975 1.962v4.661zm-3.765-.176h3.579v-4.485c0-.809-.798-1.786-1.789-1.786s-1.789.977-1.789 1.786v4.485h0z" class="G"/><path d="M24.336 53.919h-4.764v7.055h4.764v-7.055z" class="J"/><use xlink:href="#J" x="6.115" class="K"/><use xlink:href="#K" x="6.116" class="L"/><use xlink:href="#L" class="G"/><path d="M30.449 53.919h-4.764v7.055h4.764v-7.055z" class="J"/><use xlink:href="#J" x="12.227" class="K"/><use xlink:href="#K" x="12.228" class="L"/><path d="M30.041 60.74h-3.95v-4.661c0-.888.881-1.962 1.975-1.962s1.975 1.073 1.975 1.962v4.661zm-3.764-.176h3.579v-4.485c0-.809-.798-1.786-1.789-1.786s-1.789.977-1.789 1.786v4.485z" class="G"/><path d="M36.564 53.92H31.8v7.055h4.764V53.92zm5.901 0h-4.764v7.055h4.764V53.92z" class="J"/><use xlink:href="#J" x="18.342" class="K"/><use xlink:href="#K" x="18.342" class="L"/><use xlink:href="#L" x="12.228" class="G"/><path d="M7.343 51.287H5.886v21.044h1.457V51.287zm6.17 0h-1.457v21.044h1.457V51.287zm6.117 0h-1.457v21.044h1.457V51.287zm6.114-.005h-1.457v21.044h1.457V51.282zm6.112 0h-1.457v21.044h1.457V51.282zm6.111 0H36.51v21.044h1.457V51.282zm6.113 0h-1.457v21.044h1.457V51.282zm6.103 0h-1.457v21.044h1.457V51.282z" fill="#bfddda"/><path d="M7.341 62.183H5.884V72.33h1.457V62.183zm6.171.001h-1.457v10.147h1.457V62.184zm6.116 0h-1.457v10.147h1.457V62.184z" class="H"/><use xlink:href="#M" class="H"/><use xlink:href="#M" x="6.112" class="H"/><use xlink:href="#M" x="12.222" class="H"/><use xlink:href="#M" x="18.336" class="H"/><use xlink:href="#M" x="24.439" class="H"/><path d="M50.183 51.289H5.886v.937h44.297v-.937z" fill="#8ce0d8"/><path d="M17.679 63.458h-3.672v5.673h3.672v-5.673zm6.119 0h-3.672v5.673h3.672v-5.673z" fill="#babab1"/><path d="M23.551 63.839h-3.178v4.911h3.178v-4.911z" fill="#c6c6c6"/><path d="M29.926 63.458h-3.672v5.673h3.672v-5.673z" fill="#babab1"/><path d="M29.679 63.839h-3.178v4.911h3.178v-4.911z" fill="#c6c6c6"/><path d="M5.886 55.557c-5.738.388-1.527-.772-7.265-.385v-6.53c5.738-1.476 1.526-1.404 7.265-2.881v9.796z" fill="#115959"/><path d="M5.886 48.703c-5.738 1.149-.607-.075-6.345 1.074v-1.961c5.738-1.476.607-.578 6.345-2.055v2.941z" class="B"/><path d="M4.948 48.488v-1.337l-.147-.183-.147.252v1.33l.147.187.147-.248zm.416-.086v-1.348l-.147-.185-.147.254v1.34l.147.189.147-.25zm.417-.087v-1.359l-.147-.187-.147.256v1.351l.147.191.147-.252z" fill="#115959"/><path d="M5.886 46.561l-8.644 2.175v-.533l8.644-2.441v.8zm-1.337 3.953l-1.159.197v-.892l1.159-.218v.913zm1.338-.228l-1.159.197v-.916l1.159-.218v.937z" fill="#509b8c"/><path d="M5.886 62.211l-.566-.146V51.368l.566-.085v10.929z" fill="#8bb7b0"/><path d="M68.56 34.812a12.3 12.3 0 0 0-11.264-13.251 12.3 12.3 0 0 0-13.251 11.264 12.3 12.3 0 0 0 11.264 13.251A12.3 12.3 0 0 0 68.56 34.812z" class="F"/><circle cx="28.497" cy="23.461" stroke="#f29e25" stroke-width=".4" r=".871"/><circle cx="60.567" cy="28.498" stroke="#112236" stroke-width=".4" r=".697"/><path d="M60.985 29.668c0 .257-.181.465-.403.465s-.403-.208-.403-.465.181-.465.403-.465.403.208.403.465z" class="O"/><path d="M61.03 31.237c0 .738-.2 1.337-.447 1.337s-.446-.599-.446-1.337.2-1.337.446-1.337.447.598.447 1.337z" class="O"/><path d="M61.334 33.134c0 .479-.337.867-.752.867s-.752-.388-.752-.867.337-.867.752-.867.752.388.752.867z" class="P"/><path d="M73.149 48.289c0 6.611-5.687 8.742-12.701 8.742s-12.701-2.13-12.701-8.742 4.88-15.2 12.701-15.2c8.133 0 12.701 8.589 12.701 15.2z" class="O"/><path d="M70.881 48.289c0 6.611-4.673 8.742-10.438 8.742s-10.438-2.13-10.438-8.742 4.01-15.2 10.438-15.2c6.684 0 10.438 8.589 10.438 15.2z" fill="#203144"/><path d="M67.841 48.289c0 6.611-3.186 8.742-7.116 8.742s-7.116-2.13-7.116-8.742 2.734-15.2 7.116-15.2c4.557 0 7.116 8.589 7.116 15.2z" fill="#2c3e54"/><path d="M63.584 48.289c0 6.611-1.34 8.742-2.993 8.742s-2.993-2.13-2.993-8.742 1.15-15.2 2.993-15.2c1.916 0 2.993 8.589 2.993 15.2z" class="P"/><use xlink:href="#N" fill="#445365"/><use xlink:href="#N" y="0.808" fill="#203144"/><path d="M60.211 46.543c-7.043 0-12.753 1.938-12.753 4.328v2.995 1.333h25.505v-4.328c0-2.39-5.71-4.328-12.753-4.328z" fill="#2c3e54"/><path d="M61.53 52.552V48.64c0-.729-.581-1.603-1.29-1.603s-1.29.874-1.29 1.603v3.912h2.58zm-3.912.391v-3.912c0-.729-.581-1.603-1.29-1.603s-1.29.874-1.29 1.603v3.912h2.58zm-3.88.686v-3.912c0-.729-.543-1.603-1.206-1.603s-1.206.874-1.206 1.603v3.912h2.412zm-3.411 1.119v-3.911c0-.729-.461-1.603-1.024-1.603s-1.024.874-1.024 1.603v3.911h2.048zm12.589-1.805v-3.912c0-.729.581-1.603 1.29-1.603s1.29.874 1.29 1.603v3.912h-2.58zm3.882.686v-3.912c0-.729.543-1.603 1.206-1.603s1.206.874 1.206 1.603v3.912h-2.412z" class="P"/><path d="M70.208 54.748v-3.911c0-.729.461-1.603 1.024-1.603s1.024.874 1.024 1.603v3.911h-2.049z" class="N"/><path d="M81.767 52.953l-1.307 16.473L31.081 80.46V55.95l50.686-11.444v8.447z" fill="#f7e3ae"/><path d="M70.155 72.903c0-3.474-1.11-10.286-4.865-13.079 0 0-3.702 3.542-3.702 13.283v3.763l8.566.372v-4.339z" class="I"/><path d="M62.506 73.707c0-8.768 2.997-12.512 3.597-13.172a7.3 7.3 0 0 0-.812-.708s-3.702 3.542-3.702 13.283v14.046l.917.04V73.707zm4.187-7.582c0-1.09-.252-1.823-1.005-2.793-.714.919-1.004 1.703-1.004 2.827v4.924l2.009-.208v-4.75z" class="M"/><path d="M64.571 71.225V66.16c0-1.138.29-1.955 1.033-2.913l.083-.107.083.107c.763.983 1.033 1.736 1.033 2.879v4.869l-2.233.231zm1.117-7.697c-.649.868-.893 1.594-.893 2.632v4.783l1.785-.184v-4.633c-.001-1.027-.236-1.722-.893-2.598z" class="C"/><path d="M60.601 74.407c0-3.474-1.059-10.286-4.64-13.079 0 0-3.531 3.542-3.531 13.283v5.954l8.171.355v-6.513z" class="I"/><path d="M53.304 75.209c0-8.768 2.859-12.512 3.431-13.172a7.12 7.12 0 0 0-.774-.708s-3.531 3.542-3.531 13.283v12.144l.874.038V75.209zm3.992-7.58c0-1.09-.24-1.823-.958-2.793-.681.919-.958 1.703-.958 2.827v4.383l1.916-.198v-4.219z" class="M"/><path d="M55.271 72.183v-4.52c0-1.136.276-1.952.985-2.909l.083-.112.083.112c.727.982.984 1.734.984 2.875v4.333l-2.136.221zm1.067-7.151a4.15 4.15 0 0 0-.849 2.631v4.245l1.698-.176v-4.103c0-1.028-.224-1.722-.849-2.597z" class="C"/><path d="M51.68 75.66c0-3.474-.929-10.285-4.072-13.078 0 0-3.098 3.542-3.098 13.283v7.043l7.17.311V75.66z" class="I"/><path d="M45.279 76.461c0-8.768 2.509-12.512 3.011-13.172a6.64 6.64 0 0 0-.68-.709s-3.098 3.542-3.098 13.283v10.549l.768.033v-9.984zm3.502-7.58c0-1.09-.211-1.823-.841-2.793-.598.92-.841 1.703-.841 2.827v3.986l1.682-.174v-3.846z" class="M"/><path d="M46.997 73.031v-4.115c0-1.131.241-1.944.861-2.898l.082-.126.082.126c.636.979.861 1.728.861 2.864v3.954l-1.886.195zm.943-6.742c-.53.854-.739 1.604-.739 2.627v3.857l1.477-.152v-3.739a4.39 4.39 0 0 0-.739-2.593z" class="C"/><path d="M43.567 76.411c0-3.474-.802-10.286-3.511-13.079 0 0-2.671 3.542-2.671 13.283v5.416l6.182.268v-5.888z" class="I"/><path d="M38.047 77.214c0-8.768 2.163-12.512 2.596-13.172a6.38 6.38 0 0 0-.586-.709s-2.671 3.542-2.671 13.283v9.487l.662.029-.001-8.917zm3.019-7.581c0-1.09-.182-1.823-.725-2.793-.515.919-.725 1.703-.725 2.827v4.007l1.45-.15v-3.891z" class="M"/><path d="M39.522 73.794v-4.127a5.39 5.39 0 0 1 .74-2.886l.08-.142.08.142a5.2 5.2 0 0 1 .74 2.852v3.992l-1.64.169zm.82-6.749c-.452.85-.63 1.6-.63 2.622v3.888l1.26-.13v-3.792c0-1.026-.167-1.722-.63-2.588z" class="C"/><path d="M74.077 51.15c0-1.069-.247-1.789-.986-2.74-.7.902-.986 1.671-.986 2.774v3.529l1.972-.371-.001-3.191z" class="D"/><path d="M71.996 54.86v-3.677c0-1.117.284-1.918 1.014-2.858l.082-.105.082.105c.748.964 1.013 1.703 1.013 2.825v3.298l-2.19.413zm1.096-6.26a3.89 3.89 0 0 0-.876 2.582v3.38l1.752-.33V51.15c-.001-1.008-.232-1.689-.876-2.549z" class="C"/><path d="M71.225 51.732c0-1.059-.245-1.771-.976-2.714-.694.894-.976 1.655-.976 2.747v3.482l1.952-.368v-3.147z" class="D"/><path d="M69.164 55.395v-3.629c0-1.106.281-1.9 1.004-2.83l.081-.104.081.104c.741.955 1.004 1.687 1.004 2.797v3.254l-2.169.409zm1.085-6.186c-.631.843-.868 1.548-.868 2.557V55.1l1.735-.328v-3.04c0-.999-.229-1.673-.868-2.524z" class="C"/><path d="M68.373 52.313c0-1.049-.243-1.754-.967-2.687-.687.885-.967 1.639-.967 2.72v3.435l1.933-.365v-3.104z" class="D"/><path d="M66.331 55.927v-3.581c0-1.096.279-1.881.994-2.802l.08-.103.08.103c.734.946.994 1.67.994 2.77v3.209l-2.148.405zm1.075-6.113c-.617.826-.859 1.547-.859 2.532v3.289l1.718-.324v-2.998c0-.989-.227-1.657-.859-2.499z" class="C"/><path d="M65.52 52.895c0-1.038-.24-1.737-.957-2.661-.68.876-.957 1.623-.957 2.694v3.388l1.914-.361v-3.06z" class="D"/><path d="M63.499 56.46v-3.533c0-1.084.276-1.862.985-2.775l.08-.102.08.102c.727.936.984 1.654.984 2.743v3.165l-2.128.401zm1.064-6.04a3.78 3.78 0 0 0-.851 2.508v3.244l1.701-.321v-2.955c.001-.979-.224-1.64-.85-2.475z" class="C"/><path d="M62.668 53.477c0-1.028-.238-1.72-.948-2.634-.673.868-.948 1.606-.948 2.667v3.342l1.895-.357v-3.017z" class="D"/><path d="M60.667 56.993v-3.485c0-1.074.273-1.844.974-2.748l.079-.101.079.101c.719.927.975 1.637.975 2.715v3.119l-2.106.398zm1.053-5.967c-.613.818-.843 1.503-.843 2.482v3.198l1.684-.317v-2.913c0-.969-.222-1.624-.842-2.45z" class="C"/><path d="M59.815 54.057c0-1.018-.235-1.703-.938-2.608-.666.859-.938 1.59-.938 2.64v3.295l1.876-.354v-2.973z" class="D"/><path d="M57.834 57.525v-3.436c0-1.063.27-1.826.964-2.72l.078-.1.078.1c.712.918.965 1.621.965 2.688v3.075l-2.085.393zm1.043-5.894c-.606.81-.834 1.488-.834 2.458v3.153l1.668-.314v-2.87c-.001-.96-.221-1.608-.834-2.426z" class="C"/><path d="M56.962 54.639c0-1.008-.233-1.685-.929-2.581-.66.85-.928 1.574-.928 2.613v3.248l1.857-.35v-2.93z" class="D"/><path d="M55.002 58.058V54.67c0-1.053.268-1.807.955-2.692l.077-.099.077.099c.705.908.955 1.605.955 2.661v3.031l-2.064.389zm1.033-5.821c-.593.793-.826 1.486-.826 2.433v3.108l1.65-.311v-2.828c0-.95-.217-1.591-.825-2.401z" class="C"/><path d="M54.11 55.22c0-.997-.231-1.668-.919-2.555-.653.841-.919 1.558-.919 2.587v3.201l1.838-.347-.001-2.886z" class="D"/><path d="M52.169 58.591v-3.34c0-1.042.265-1.789.945-2.665l.076-.098.076.098c.698.899.945 1.589.945 2.634v2.986l-2.042.385zm1.022-5.748c-.586.785-.817 1.471-.817 2.408v3.062l1.634-.308V55.22c0-.941-.215-1.575-.817-2.377z" class="C"/><path d="M51.258 55.8c0-.987-.228-1.651-.91-2.529-.646.832-.91 1.542-.91 2.56v3.154l1.82-.343V55.8z" class="D"/><path d="M49.337 59.123v-3.292c0-1.03.263-1.77.936-2.638l.076-.097.075.097c.691.89.935 1.572.935 2.607v2.942l-2.022.381zm1.011-5.675c-.581.777-.808 1.456-.808 2.383v3.017l1.617-.305v-2.743c0-.93-.213-1.559-.808-2.352z" class="C"/><path d="M48.405 56.382c0-.977-.226-1.633-.9-2.502-.64.824-.9 1.526-.9 2.533v3.107l1.8-.34v-2.799z" class="D"/><path d="M46.505 59.656v-3.244c0-1.02.259-1.752.926-2.61l.075-.096.075.096c.684.88.926 1.555.926 2.579v2.897l-2.001.377zm1-5.602c-.582.777-.8 1.428-.8 2.358v2.972l1.6-.301v-2.701c0-.921-.211-1.543-.8-2.328z" class="C"/><path d="M45.553 56.963c0-.966-.223-1.616-.891-2.476-.633.815-.891 1.51-.891 2.506v3.061l1.781-.336v-2.755z" class="D"/><path d="M43.673 60.188v-3.195c0-1.009.257-1.733.916-2.582l.074-.095.074.095c.676.871.916 1.539.916 2.553v2.852l-1.979.373zm.99-5.528c-.575.77-.792 1.413-.792 2.334v2.927l1.583-.299v-2.658c0-.911-.209-1.527-.792-2.303z" class="C"/><path d="M42.701 57.546c0-.956-.221-1.599-.881-2.45-.626.806-.881 1.494-.881 2.48v3.014l1.762-.332v-2.712z" class="D"/><path d="M40.84 60.722v-3.147c0-.999.254-1.715.906-2.555l.073-.094.073.094c.669.862.906 1.523.906 2.525v2.808l-1.959.369zm.979-5.456c-.562.753-.783 1.41-.783 2.308v2.881l1.566-.296v-2.615c0-.901-.206-1.509-.783-2.279z" class="C"/><path d="M39.848 58.126c0-.946-.218-1.582-.872-2.423-.619.798-.872 1.478-.872 2.453v2.968l1.744-.328v-2.669z" class="D"/><path d="M38.007 61.254v-3.099c0-.988.252-1.696.897-2.527l.072-.093.072.093c.662.852.896 1.506.896 2.498v2.763l-1.937.366zm.969-5.382a3.44 3.44 0 0 0-.775 2.284v2.836l1.549-.292v-2.573c.001-.892-.204-1.494-.774-2.254z" class="C"/><path d="M36.995 58.708c0-.935-.216-1.565-.862-2.397-.612.789-.862 1.461-.862 2.426v2.92l1.724-.325v-2.624z" class="D"/><path d="M35.175 61.787v-3.051c0-.977.248-1.678.887-2.5l.071-.092.071.092c.655.843.886 1.49.886 2.47v2.719l-1.916.361zm.958-5.309c-.557.745-.767 1.367-.767 2.259v2.79l1.532-.289v-2.531c.001-.882-.202-1.478-.766-2.23z" class="C"/><path d="M34.143 59.288c0-.925-.214-1.548-.853-2.371-.606.781-.852 1.446-.852 2.4v2.874l1.705-.322v-2.581z" class="D"/><path d="M32.343 62.32v-3.002c0-.966.246-1.659.877-2.472l.071-.091.071.091c.648.834.877 1.473.877 2.444v2.674l-1.895.357zm.948-5.237c-.551.737-.758 1.353-.758 2.234v2.745l1.516-.285v-2.488c0-.873-.2-1.462-.758-2.205z" class="C"/><path d="M21.08 57.139h2.56v6.193h-3.387l.827-6.193z" class="I"/><path d="M26.397 55.337l-3.249 1.102v4.935l-2.068.749V57.14l-2.718.922v22.365l8.034.493.827-11.425-.827-14.157z" fill="#f7e3ae"/><path d="M26.397 80.919l4.726-.811V55.947l-4.725-.61v25.582z" class="I"/><path d="M14.809 66.256l-2.59 1.031v4.713l2.591.934v-6.679z" fill="#ddb357"/><path d="M14.809 72.935h5.444v-6.261l-5.443-.419v6.68z" class="D"/></g><path opacity=".2" d="M191.733 13.507c.023-.179.066-.454.042-.618-.027-.185-.029-.529 0-.701v-.453c-.027-.13.03-.314-.042-.495-.031-.021-.092 0-.121.004-.166.027-.277.248-.461.202-.075-.018-.143-.097-.218-.147-.033-.022-.068.106-.078.122-.055.091-.166.083-.244.025-.142-.106-.123-.285-.302-.357-.01-.004-.117-.061-.123-.055-.066.065-.096.216-.133.298-.058.128-.179.145-.223.277-.033.099.026.227.033.373a2.51 2.51 0 0 1-.042.536l-.083.453c-.041.288.087.375-.12.581-.094.094-.235.165-.323.287-.026.036-.135.275-.2.254-.078-.026-.026-.269-.134-.243-.128.032-.194.277-.318.35-.097.058-.24-.043-.351-.03-.233.026-.402.308-.59.42a.47.47 0 0 1-.266.065c-.247-.041-.318-.243-.445-.419-.118-.165-.278-.249-.475-.277-.163-.023-.289.123-.443.153-.313.062-.592.098-.898.215-.2.076-.372-.127-.568-.113-.145.011-.277.091-.413.133a1.2 1.2 0 0 0-.467.242c-.204.152-.073.441-.125.855l-.083 1.071-.041.824s-.047.27-.1.412c-.085.233-.154.363-.316.523a1.04 1.04 0 0 1-.457.26c-.148.043-.279.027-.291 0-.035-.078-.221-.201-.291-.247-.043-.029-.332.165-.332.165v.536.48c0 .494-.202 1.424-.291 1.91l-.805 4.277-.608 2.482c-.088.348-.525 1.56-.665 1.896l-1.288 3.297-1.468 2.967c-.859 1.442-1.212 2.035-2.078 3.049-.293.343-1.094 1.051-1.38 1.401-1.154 1.093-1.556 1.754-1.556 1.754s.034.212.093.289c.063.084.121.404.184.512l.332.989a5.9 5.9 0 0 1 .276.871c.055.215.046.423.133.632.216.519.737 2.47 1.09 2.906.115.144.382 1.791.496 1.937m17.577-37.129c-.012.095.03-.089 0 0zm0 0c-.037.11.011.473-.042.577-.043.087-.12.139-.201.186-.212.12-.375.4-.345.64.019.149-.126.242-.156.411-.057.322.011.539.042.865.045.481-.088.956.063 1.195.135.214-.936.068-1.231.494-.284.411-.254.721 0 1.195.249.464.244.568.457.907.208.33.496.28.536.33.028.036.132.199.154.242.045.091-.003.23.021.326.041.163-.032.311-.129.504m0 0c-.014.029.031-.019 0 0zm0 0c-.333.124-.457.288-.291.701 0 .058-.062.773 0 1.072.077.367-.042.824-.042 1.03-.072.308-.155 1.138-.093 1.442.076.376-.03.856-.031 1.484-.001.482.097 1.128.031 1.358-.084.29-.049.809-.206 1.403l-.241 1.03c-.041.041-.034.582.042.783.062.166.18.791.199.907.024.144.004.644 0 1.03-.005.532.063 1.451-.116 2.019-.195.618-.57.06-.995.865-1 1.896-1.065 2.249-1.083 3.791-.022 1.95.214 1.38.125 2.267-.083.824-.268.948-.332 1.566-.126 1.206.813 2.003.597 2.431-.14 1.525-.057 1.937-.224 2.431-.124.371-.489.101-.646.412-.33.655-.224.979-.351 1.73-.069.41-.413.169-.592 1.648-.095.076-.613 1.236-.613 1.236s-.461.315-.499.577l-.124.824s-.054.592-.208.948c-.079.183-.288.427-.332.603-.137.541.301 1.15.207 1.705-.022.135-.205.739-.29 1.113-.291 1.278.249 2.225.068 2.795-.074.147-.264.247-.318.408-.089.265-.228.587-.415.835-.12.158-.342.837-.478 1.005-.183.227-.144 1.751-.144 1.751s-.485 1.221-.625 1.901l-.623 3.008s-.298.123-.499.288c-.304.251-.549.902-.623.865-.083-.041-.333-.618-.582-1.195l-.291-2.761c-.116-.539-.314-1.147-.441-1.451-.088-.21-.265-.898-.39-1.252-.105-.156-.397-1.041-.429-1.226-.056-.338-.037-.658-.137-.989-.209-.692-.431-1.058-.722-1.841l-.665-1.772c-.046-.083-.249-.948-.249-.948l-.25-.615c-.097-.078-.194-.385-.29-.457-.156-.116-.396-.407-.541-.536-.089-.08-.009-1.317-.041-1.442-.099-.394-.388-.162-.457-.577-.065-.385.096-1.621-.083-1.978l-1.413-2.967m0 0c-.259-.448.319.406 0 0z" stroke="#fff"/><path d="M106.61 14.982l.178 2.414-6.605 11.404-.222.399c-.148.251-.297.561-.445.93a3.24 3.24 0 0 0-.2 1.107h-.222l-.867-1.927 8.384-14.327zM91.532 29.177v1.617h-2.468v-.221h.2.156a1.72 1.72 0 0 0 1.067-.354c.311-.251.497-.598.556-1.041h.489zm.979.354v.044.066c0 .236.082.458.245.664.178.192.385.288.623.288h.334v.199h-1.357v-1.262h.156zm.378-14.549h.2l.778 2.214-1.49 13.597H90.82l2.068-15.811zm.2 0l7.272 11.892-1.268 4.362-6.583-11.006.578-5.248zm13.721 0l2.113 15.811h-3.58l-1.112-10.186 2.379-5.625h.2zm1.424 14.195h.467c.074.443.267.79.578 1.041.311.236.66.354 1.045.354h.178.178v.221h-2.446v-1.617zm-3.025.354h.156v1.262h-1.357v-.199h.334a.78.78 0 0 0 .623-.288c.163-.207.244-.428.244-.664v-.066-.044z" fill="url(#F)"/><path d="M117.555 16.909l6.583 13.774h-3.759l-4.136-9.721 1.312-4.052zm-4.181 12.423c-.163.399-.141.709.066.93.208.207.438.31.69.31h.178v.221h-4.448v-.221h.089.089c.296 0 .608-.089.934-.266.326-.192.593-.517.801-.974h1.601zm4.181-12.423l.044 2.657-4.826 11.161h-1.645l5.204-11.139a4.95 4.95 0 0 1 .2-.465l.333-.775.334-.819c.104-.266.163-.472.178-.62h.178zm1.935 9.544v.864h-5.671v-.864h5.671zm.333 2.879h3.67c.222.458.496.782.822.974.327.177.638.266.935.266h.088.089v.221h-6.538v-.221h.178c.252 0 .482-.103.689-.31.208-.221.23-.532.067-.93z" fill="url(#F)"/><path d="M130.326 17.219l1.068.044 1.267.111a9.54 9.54 0 0 1 1.09.133c.326.044.549.089.667.133l-.289 2.702h-.2c0-.679-.237-1.218-.712-1.617s-1.156-.598-2.046-.598c-.711 0-1.29.155-1.734.465-.43.31-.66.723-.69 1.24a1.22 1.22 0 0 0 .134.731 2.09 2.09 0 0 0 .533.554l.779.487 3.491 2.148c.593.295 1.06.723 1.401 1.284s.49 1.24.445 2.037c-.044.827-.289 1.543-.734 2.148-.43.605-1.03 1.07-1.801 1.395-.756.31-1.653.465-2.691.465a9.61 9.61 0 0 1-1.779-.155c-.549-.103-1.023-.244-1.424-.421-.385-.177-.682-.377-.889-.598-.119-.295-.171-.65-.156-1.063a5.25 5.25 0 0 1 .2-1.262c.119-.428.267-.782.445-1.063h.178c-.044.664.074 1.277.356 1.838a3.42 3.42 0 0 0 1.29 1.351c.563.325 1.238.487 2.024.487.859 0 1.504-.199 1.934-.598s.645-.864.645-1.395a1.58 1.58 0 0 0-.4-1.063c-.252-.325-.675-.642-1.268-.952l-3.158-1.993c-.741-.384-1.282-.893-1.623-1.528-.326-.635-.445-1.329-.356-2.081.074-.709.282-1.314.623-1.816a3.45 3.45 0 0 1 1.401-1.152c.578-.266 1.238-.399 1.979-.399zm4.092.199l-.022.399h-2.38v-.399h2.402z" fill="url(#F)"/><path d="M141.927 17.507v12.6c0 .723-.155 1.38-.467 1.971a4.41 4.41 0 0 1-1.245 1.506c-.519.413-1.105.709-1.757.886-.652.192-1.334.251-2.046.177v-.199c.578-.251 1.03-.605 1.356-1.063a4.11 4.11 0 0 0 .712-1.572 7 7 0 0 0 .223-1.749V17.507h3.224zm-3.136 0v1.439h-.066c-.015-.34-.149-.628-.401-.864-.237-.236-.541-.354-.911-.354h-.245l-.022-.221h1.645zm4.693 0v.221h-.267c-.356 0-.66.118-.912.354-.237.236-.363.524-.378.864h-.067v-1.439h1.624z" fill="url(#F)"/><path d="M149.443 17.507v13.287h-3.202V17.507h3.202zm-3.136 11.891v1.395h-1.623v-.221h.133.156c.341 0 .638-.111.89-.332.252-.236.378-.517.378-.841h.066zm3.092 0h.044a1.23 1.23 0 0 0 .378.841c.252.222.556.332.912.332h.111.156v.221h-1.601v-1.395zm0-10.496v-1.395H151l-.022.221h-.111-.134c-.356 0-.66.111-.912.332-.237.221-.363.502-.378.841h-.044zm-3.092 0h-.066a1.07 1.07 0 0 0-.378-.841c-.252-.221-.556-.332-.912-.332h-.134-.133v-.221h1.623v1.395z" fill="url(#F)"/><path d="M159.867 17.507c1.586 0 2.95.266 4.092.797 1.141.517 2.016 1.277 2.624 2.281.608.989.912 2.177.912 3.565s-.304 2.576-.912 3.565-1.483 1.749-2.624 2.281-2.506.797-4.092.797h-4.937l-.045-.886h2.713 1.513.489c1.394 0 2.491-.509 3.291-1.528s1.201-2.428 1.201-4.23-.4-3.211-1.201-4.23c-.8-1.033-1.897-1.55-3.291-1.55h-.489-1.579-2.869v-.864h5.204zm-2.78 0v13.287h-3.203V17.507h3.203zm-3.136 11.869v1.417h-1.601v-.221h.133.156a1.18 1.18 0 0 0 .867-.354c.252-.236.378-.517.378-.841h.067zm-.022-10.474h-.045a1.14 1.14 0 0 0-.4-.841c-.237-.221-.526-.332-.867-.332h-.134-.133v-.221h1.579v1.395z" fill="url(#F)"/><path d="M98.783 40.429l8.32 18.142h-4.58l-5.292-13.238 1.552-4.904zm-5.471 16.439c-.136.339-.161.627-.076.864s.229.424.433.559c.204.118.407.178.611.178h.229v.254h-5.445v-.254h.127.102c.39 0 .789-.118 1.196-.356.424-.254.772-.669 1.043-1.245h1.781zm5.471-16.439l.102 3.1-6.31 15.118h-1.858l6.59-14.889.255-.559.407-.966.407-1.016c.119-.339.178-.601.178-.788h.229zm2.672 12.247v1.067h-7.481v-1.067h7.481zm.381 4.192h4.453c.288.576.636.991 1.043 1.245.407.237.806.356 1.196.356h.102.102v.254h-8.091v-.254h.228c.34 0 .637-.136.891-.407.254-.288.28-.686.076-1.194z" fill="url(#G)"/><path d="M114.248 43.478v15.245h-3.664V43.478h3.664zm5.928 14.229l.611 1.016h-6.59v-1.016h5.979zm1.68-3.659l-.993 4.675h-4.401l.788-1.016c.73 0 1.374-.144 1.934-.432.577-.305 1.069-.728 1.476-1.27.407-.559.721-1.211.941-1.956h.255zm-11.221 3.074l.127 1.601h-1.883v-.254h.153.178c.373 0 .687-.127.941-.381a1.41 1.41 0 0 0 .433-.965h.051zm3.562-12.044v-1.601h1.756v.254h-.178-.128c-.373 0-.695.127-.967.381s-.415.576-.432.966h-.051zm-3.562 0h-.051c-.017-.39-.161-.712-.433-.966s-.593-.381-.966-.381h-.179-.127v-.254h1.756v1.601z" fill="url(#G)"/><path d="M137.347 40.429l8.32 18.142h-4.58l-5.292-13.238 1.552-4.904zm-5.471 16.439c-.135.339-.161.627-.076.864a1.1 1.1 0 0 0 .432.559c.204.118.408.178.611.178h.229v.254h-5.445v-.254h.127.102c.39 0 .789-.118 1.196-.356.424-.254.772-.669 1.043-1.245h1.781zm5.471-16.439l.101 3.1-6.31 15.118h-1.857l6.59-14.889.254-.559.407-.966.408-1.016c.118-.339.178-.601.178-.788h.229zm2.671 12.247v1.067h-7.48v-1.067h7.48zm.382 4.192h4.453c.288.576.636.991 1.043 1.245.407.237.806.356 1.196.356h.102.101v.254h-8.091v-.254h.229c.339 0 .636-.136.891-.407.254-.288.28-.686.076-1.194z" fill="url(#G)"/><path d="M155.749 43.148c1.324 0 2.519.186 3.588.559 1.086.356 2.01.881 2.773 1.575.781.694 1.374 1.533 1.782 2.515.424.982.636 2.092.636 3.328 0 1.22-.212 2.321-.636 3.303-.408.965-1.001 1.796-1.782 2.49-.763.694-1.687 1.228-2.773 1.601-1.069.356-2.264.534-3.588.534s-2.527-.178-3.613-.534c-1.068-.373-1.993-.906-2.773-1.601a7.29 7.29 0 0 1-1.781-2.49c-.407-.982-.611-2.084-.611-3.303 0-1.237.204-2.346.611-3.328.424-.983 1.018-1.821 1.781-2.515.78-.695 1.705-1.22 2.773-1.575 1.086-.373 2.29-.559 3.613-.559zm0 14.915c.984 0 1.841-.279 2.57-.838.747-.576 1.315-1.381 1.705-2.414.407-1.033.611-2.261.611-3.684 0-1.44-.204-2.676-.611-3.71-.39-1.05-.958-1.855-1.705-2.414-.729-.576-1.586-.864-2.57-.864s-1.84.288-2.569.864c-.73.559-1.298 1.364-1.705 2.414-.407 1.033-.611 2.27-.611 3.71 0 1.423.204 2.651.611 3.684s.975 1.838 1.705 2.414c.729.559 1.586.838 2.569.838zm-.05.965l-.764-.915 2.494.254 2.01.33 1.832.483 1.959.635 2.392.915c1.001.373 1.967.644 2.9.813.95.186 1.849.254 2.697.203.849-.034 1.637-.178 2.367-.432s1.391-.61 1.984-1.067l.128.076c-.034.762-.255 1.465-.662 2.109-.39.644-.933 1.177-1.628 1.601-.696.44-1.527.737-2.494.889-.95.152-2.01.119-3.18-.102-1.154-.22-2.384-.669-3.69-1.347a23.78 23.78 0 0 1-2.315-1.372l-2.061-1.423a15.6 15.6 0 0 0-1.959-1.118 6.43 6.43 0 0 0-2.01-.534z" fill="url(#G)"/><path d="M171.716 43.148l1.222.051 1.45.127a10.9 10.9 0 0 1 1.247.152c.373.051.627.102.763.152l-.331 3.1h-.229c0-.779-.271-1.398-.814-1.855s-1.323-.686-2.341-.686c-.814 0-1.476.178-1.984.533-.492.356-.755.83-.789 1.423-.034.305.017.584.153.839.152.237.356.449.61.635l.891.559 3.994 2.465a3.84 3.84 0 0 1 1.603 1.474c.391.644.56 1.423.509 2.338-.051.949-.331 1.77-.839 2.465-.492.694-1.179 1.228-2.061 1.601-.865.356-1.892.534-3.079.534a10.99 10.99 0 0 1-2.036-.178c-.627-.119-1.17-.279-1.628-.483-.441-.203-.78-.432-1.018-.686-.135-.339-.195-.745-.178-1.22.017-.491.093-.974.229-1.448.136-.491.305-.898.509-1.22h.204c-.051.762.084 1.465.407 2.109.339.644.831 1.16 1.475 1.55.645.373 1.417.559 2.316.559.984 0 1.722-.229 2.213-.686s.738-.991.738-1.601c0-.457-.152-.864-.458-1.22-.288-.373-.771-.737-1.45-1.093l-3.613-2.287c-.848-.44-1.467-1.025-1.857-1.753-.374-.728-.509-1.525-.408-2.388.085-.813.323-1.508.713-2.084.407-.576.941-1.016 1.603-1.321s1.416-.457 2.264-.457zm4.682.229l-.025.457h-2.723v-.457h2.748z" fill="url(#G)"/><path d="M186.723 42.792l7.531 15.804h-4.3l-4.732-11.154 1.501-4.65zm-4.784 14.254c-.186.457-.161.813.077 1.067.237.237.5.356.789.356h.203v.254h-5.089v-.254h.102.102c.339 0 .695-.102 1.069-.305.373-.22.678-.593.916-1.118h1.831zm4.784-14.254l.051 3.049-5.521 12.806h-1.883l5.954-12.781c.033-.102.11-.279.229-.534l.381-.889.382-.94c.119-.305.186-.542.203-.711h.204zm2.214 10.951v.991h-6.489v-.991h6.489zm.381 3.303h4.199c.254.525.568.898.941 1.118.373.203.729.305 1.069.305h.101.102v.254h-7.48v-.254h.203c.289 0 .551-.118.789-.356.237-.254.263-.61.076-1.067z" fill="url(#G)"/><defs><linearGradient id="D" x1="40" y1="0" x2="40" y2="80" gradientUnits="userSpaceOnUse"><stop offset=".123" stop-color="#ffb800"/><stop offset="1" stop-color="#e7a115"/></linearGradient><linearGradient id="E" x1="40" y1="0" x2="40" y2="80" gradientUnits="userSpaceOnUse"><stop stop-color="#fff"/><stop offset="1" stop-color="#fff" stop-opacity="0"/></linearGradient><linearGradient id="F" x1="128.279" y1="14.982" x2="128.279" y2="34.677" gradientUnits="userSpaceOnUse"><stop offset=".057" stop-color="#fff"/><stop offset=".849" stop-color="#eaeaea"/></linearGradient><linearGradient id="G" x1="142.397" y1="40.429" x2="142.397" y2="65.016" gradientUnits="userSpaceOnUse"><stop offset=".057" stop-color="#fff"/><stop offset=".849" stop-color="#eaeaea"/></linearGradient><path id="H" d="M7.019 48.293v-1.362l-.378-.222-.378.222v1.362l.378.222.378-.222z"/><path id="I" d="M19.197 49.349h-2.983v.937h2.983v-.937z"/><path id="J" d="M17.396 60.396v-4.095c0-.763-.701-1.678-1.557-1.678s-1.557.915-1.557 1.678v4.095h3.114 0z"/><path id="K" d="M17.313 60.396v-3.876c0-.723-.663-1.589-1.474-1.589s-1.474.866-1.474 1.589v3.876h2.948z"/><path id="L" d="M23.93 60.74h-3.95v-4.661c0-.888.881-1.962 1.975-1.962s1.975 1.073 1.975 1.962v4.661zm-3.765-.176h3.579v-4.485c0-.809-.798-1.786-1.789-1.786s-1.789.977-1.789 1.786v4.485h0z"/><path id="M" d="M25.743 62.181h-1.457v10.147h1.457V62.181z"/><path id="N" d="M60.21 54.882c7.796 0 14.115-2.278 14.115-5.088s-6.32-5.088-14.115-5.088-14.115 2.278-14.115 5.088 6.32 5.088 14.115 5.088z"/></defs></svg>